<svg xmlns="http://www.w3.org/2000/svg" width="1600" height="900" viewBox="0 0 1600 900" preserveAspectRatio="xMidYMid slice">
<defs>
<linearGradient id="sky" x1="0" y1="0" x2="0" y2="1"><stop offset="0%" stop-color="#020010"/><stop offset="60%" stop-color="#0b0630"/><stop offset="100%" stop-color="#1e1b4b"/></linearGradient>
<linearGradient id="mw" x1="0" y1="0" x2="0" y2="1"><stop offset="0%" stop-color="rgba(199,210,254,0)"/><stop offset="50%" stop-color="rgba(199,210,254,0.5)"/><stop offset="100%" stop-color="rgba(199,210,254,0)"/></linearGradient>
<radialGradient id="moon" cx="0.5" cy="0.5" r="0.5"><stop offset="0%" stop-color="#fffbe6"/><stop offset="100%" stop-color="rgba(255,251,230,0)"/></radialGradient>
</defs>
<rect width="1600" height="900" fill="url(#sky)"/>
<path d="M -100 200 q 450 260 900 180 q 400 -70 900 120" fill="none" stroke="url(#mw)" stroke-width="170" opacity="0.5" filter="url(#blur)"/>
<circle cx="1189" cy="256" r="4.2" fill="#c4b5fd" opacity="0.44"/>
<circle cx="300" cy="337" r="5.8" fill="#c4b5fd" opacity="0.38"/>
<circle cx="339" cy="421" r="5.5" fill="#c4b5fd" opacity="0.45"/>
<circle cx="187" cy="597" r="3.9" fill="#c4b5fd" opacity="0.44"/>
<circle cx="810" cy="531" r="3.9" fill="#c4b5fd" opacity="0.28"/>
<circle cx="263" cy="501" r="5.7" fill="#c4b5fd" opacity="0.25"/>
<circle cx="399" cy="124" r="4.0" fill="#c4b5fd" opacity="0.36"/>
<circle cx="719" cy="460" r="3.4" fill="#c4b5fd" opacity="0.45"/>
<circle cx="1427" cy="479" r="6.7" fill="#c4b5fd" opacity="0.45"/>
<circle cx="273" cy="329" r="3.4" fill="#c4b5fd" opacity="0.43"/>
<circle cx="849" cy="137" r="5.2" fill="#c4b5fd" opacity="0.43"/>
<circle cx="868" cy="146" r="7.7" fill="#c4b5fd" opacity="0.2"/>
<circle cx="1246" cy="606" r="6.8" fill="#c4b5fd" opacity="0.48"/>
<circle cx="840" cy="198" r="5.4" fill="#c4b5fd" opacity="0.42"/>
<circle cx="1149" cy="288" r="7.7" fill="#c4b5fd" opacity="0.19"/>
<circle cx="795" cy="101" r="4.8" fill="#c4b5fd" opacity="0.5"/>
<circle cx="303" cy="612" r="7.5" fill="#c4b5fd" opacity="0.4"/>
<circle cx="223" cy="335" r="6.5" fill="#c4b5fd" opacity="0.21"/>
<circle cx="538" cy="130" r="7.2" fill="#c4b5fd" opacity="0.47"/>
<circle cx="1351" cy="485" r="5.9" fill="#c4b5fd" opacity="0.2"/>
<circle cx="776" cy="491" r="6.8" fill="#c4b5fd" opacity="0.19"/>
<circle cx="161" cy="128" r="7.6" fill="#c4b5fd" opacity="0.22"/>
<circle cx="657" cy="337" r="7.4" fill="#c4b5fd" opacity="0.22"/>
<circle cx="490" cy="497" r="3.4" fill="#c4b5fd" opacity="0.23"/>
<circle cx="183" cy="597" r="4.2" fill="#c4b5fd" opacity="0.34"/>
<circle cx="643" cy="610" r="6.6" fill="#c4b5fd" opacity="0.37"/>
<circle cx="786" cy="225" r="7.2" fill="#c4b5fd" opacity="0.21"/>
<circle cx="958" cy="239" r="4.4" fill="#c4b5fd" opacity="0.33"/>
<circle cx="396" cy="400" r="3.4" fill="#c4b5fd" opacity="0.19"/>
<circle cx="334" cy="129" r="7.4" fill="#c4b5fd" opacity="0.34"/>
<circle cx="1032" cy="501" r="3.8" fill="#c4b5fd" opacity="0.48"/>
<circle cx="650" cy="329" r="5.4" fill="#c4b5fd" opacity="0.4"/>
<circle cx="1149" cy="185" r="7.1" fill="#c4b5fd" opacity="0.32"/>
<circle cx="476" cy="547" r="7.4" fill="#c4b5fd" opacity="0.45"/>
<circle cx="571" cy="573" r="6.9" fill="#c4b5fd" opacity="0.49"/>
<circle cx="1131" cy="620" r="5.4" fill="#c4b5fd" opacity="0.42"/>
<circle cx="1166" cy="363" r="5.5" fill="#c4b5fd" opacity="0.31"/>
<circle cx="1279" cy="284" r="6.7" fill="#c4b5fd" opacity="0.36"/>
<circle cx="1069" cy="247" r="3.4" fill="#c4b5fd" opacity="0.4"/>
<circle cx="339" cy="274" r="6.9" fill="#c4b5fd" opacity="0.2"/>
<circle cx="1334" cy="398" r="5.8" fill="#c4b5fd" opacity="0.4"/>
<circle cx="224" cy="92" r="6.6" fill="#c4b5fd" opacity="0.37"/>
<circle cx="981" cy="525" r="4.4" fill="#c4b5fd" opacity="0.23"/>
<circle cx="1410" cy="113" r="5.6" fill="#c4b5fd" opacity="0.38"/>
<circle cx="1392" cy="127" r="6.5" fill="#c4b5fd" opacity="0.21"/>
<circle cx="740" cy="415" r="7.2" fill="#c4b5fd" opacity="0.2"/>
<circle cx="1123" cy="160" r="5.0" fill="#c4b5fd" opacity="0.49"/>
<circle cx="1256" cy="121" r="3.0" fill="#c4b5fd" opacity="0.19"/>
<circle cx="1165" cy="101" r="6.9" fill="#c4b5fd" opacity="0.44"/>
<circle cx="1213" cy="586" r="6.2" fill="#c4b5fd" opacity="0.44"/>
<circle cx="856" cy="441" r="3.3" fill="#c4b5fd" opacity="0.36"/>
<circle cx="1437" cy="290" r="6.6" fill="#c4b5fd" opacity="0.24"/>
<circle cx="776" cy="372" r="6.8" fill="#c4b5fd" opacity="0.28"/>
<circle cx="759" cy="183" r="5.9" fill="#c4b5fd" opacity="0.48"/>
<circle cx="653" cy="436" r="5.8" fill="#c4b5fd" opacity="0.24"/>
<circle cx="1055" cy="194" r="6.1" fill="#c4b5fd" opacity="0.5"/>
<circle cx="549" cy="441" r="4.7" fill="#c4b5fd" opacity="0.39"/>
<circle cx="399" cy="350" r="6.9" fill="#c4b5fd" opacity="0.25"/>
<circle cx="611" cy="202" r="3.8" fill="#c4b5fd" opacity="0.39"/>
<circle cx="1231" cy="364" r="5.2" fill="#c4b5fd" opacity="0.28"/>
<circle cx="383" cy="405" r="1.8" fill="#ffffff" opacity="0.69"/>
<circle cx="446" cy="74" r="1.0" fill="#ffffff" opacity="0.44"/>
<circle cx="670" cy="224" r="2.0" fill="#ffffff" opacity="0.7"/>
<circle cx="1402" cy="345" r="2.1" fill="#ffffff" opacity="0.77"/>
<circle cx="867" cy="203" r="2.5" fill="#ffffff" opacity="0.83"/>
<circle cx="618" cy="373" r="1.7" fill="#ffffff" opacity="0.74"/>
<circle cx="39" cy="256" r="2.5" fill="#ffffff" opacity="0.54"/>
<circle cx="1393" cy="293" r="1.0" fill="#ffffff" opacity="0.3"/>
<circle cx="529" cy="418" r="2.1" fill="#ffffff" opacity="0.64"/>
<circle cx="1376" cy="151" r="1.2" fill="#ffffff" opacity="0.54"/>
<circle cx="1453" cy="71" r="1.8" fill="#ffffff" opacity="0.44"/>
<circle cx="572" cy="40" r="2.5" fill="#ffffff" opacity="0.42"/>
<circle cx="1263" cy="74" r="1.7" fill="#ffffff" opacity="0.27"/>
<circle cx="942" cy="219" r="1.7" fill="#ffffff" opacity="0.38"/>
<circle cx="1021" cy="15" r="2.5" fill="#ffffff" opacity="0.56"/>
<circle cx="978" cy="182" r="1.0" fill="#ffffff" opacity="0.27"/>
<circle cx="1161" cy="209" r="1.4" fill="#ffffff" opacity="0.6"/>
<circle cx="1394" cy="219" r="1.8" fill="#ffffff" opacity="0.63"/>
<circle cx="1398" cy="14" r="2.1" fill="#ffffff" opacity="0.62"/>
<circle cx="1146" cy="71" r="2.3" fill="#ffffff" opacity="0.77"/>
<circle cx="444" cy="408" r="1.1" fill="#ffffff" opacity="0.6"/>
<circle cx="138" cy="81" r="2.0" fill="#ffffff" opacity="0.71"/>
<circle cx="767" cy="105" r="1.9" fill="#ffffff" opacity="0.54"/>
<circle cx="614" cy="176" r="1.7" fill="#ffffff" opacity="0.49"/>
<circle cx="196" cy="214" r="1.5" fill="#ffffff" opacity="0.77"/>
<circle cx="1529" cy="320" r="1.5" fill="#ffffff" opacity="0.56"/>
<circle cx="1182" cy="98" r="2.3" fill="#ffffff" opacity="0.28"/>
<circle cx="1548" cy="239" r="2.2" fill="#ffffff" opacity="0.64"/>
<circle cx="1359" cy="182" r="1.1" fill="#ffffff" opacity="0.38"/>
<circle cx="1194" cy="423" r="1.4" fill="#ffffff" opacity="0.57"/>
<circle cx="1249" cy="131" r="1.4" fill="#ffffff" opacity="0.75"/>
<circle cx="187" cy="143" r="2.0" fill="#ffffff" opacity="0.57"/>
<circle cx="1518" cy="208" r="1.7" fill="#ffffff" opacity="0.37"/>
<circle cx="1306" cy="21" r="1.0" fill="#ffffff" opacity="0.49"/>
<circle cx="1288" cy="110" r="1.7" fill="#ffffff" opacity="0.31"/>
<circle cx="448" cy="404" r="2.4" fill="#ffffff" opacity="0.31"/>
<circle cx="1529" cy="201" r="1.2" fill="#ffffff" opacity="0.49"/>
<circle cx="1539" cy="79" r="2.2" fill="#ffffff" opacity="0.86"/>
<circle cx="1464" cy="325" r="2.5" fill="#ffffff" opacity="0.32"/>
<circle cx="1112" cy="414" r="1.8" fill="#ffffff" opacity="0.26"/>
<circle cx="464" cy="190" r="1.7" fill="#ffffff" opacity="0.72"/>
<circle cx="278" cy="3" r="2.1" fill="#ffffff" opacity="0.89"/>
<circle cx="774" cy="293" r="2.1" fill="#ffffff" opacity="0.69"/>
<circle cx="1271" cy="13" r="2.1" fill="#ffffff" opacity="0.53"/>
<circle cx="618" cy="345" r="1.2" fill="#ffffff" opacity="0.85"/>
<circle cx="1299" cy="359" r="2.5" fill="#ffffff" opacity="0.39"/>
<circle cx="950" cy="389" r="1.9" fill="#ffffff" opacity="0.69"/>
<circle cx="167" cy="287" r="1.0" fill="#ffffff" opacity="0.58"/>
<circle cx="44" cy="132" r="1.2" fill="#ffffff" opacity="0.43"/>
<circle cx="206" cy="293" r="1.8" fill="#ffffff" opacity="0.75"/>
<circle cx="1297" cy="305" r="2.0" fill="#ffffff" opacity="0.59"/>
<circle cx="1233" cy="186" r="1.6" fill="#ffffff" opacity="0.51"/>
<circle cx="40" cy="90" r="2.0" fill="#ffffff" opacity="0.51"/>
<circle cx="683" cy="41" r="1.2" fill="#ffffff" opacity="0.82"/>
<circle cx="1281" cy="154" r="2.5" fill="#ffffff" opacity="0.62"/>
<circle cx="1198" cy="66" r="2.5" fill="#ffffff" opacity="0.54"/>
<circle cx="221" cy="29" r="1.1" fill="#ffffff" opacity="0.25"/>
<circle cx="1243" cy="342" r="1.4" fill="#ffffff" opacity="0.44"/>
<circle cx="1460" cy="100" r="2.4" fill="#ffffff" opacity="0.79"/>
<circle cx="655" cy="197" r="1.6" fill="#ffffff" opacity="0.48"/>
<circle cx="1126" cy="292" r="2.6" fill="#ffffff" opacity="0.33"/>
<circle cx="494" cy="227" r="2.3" fill="#ffffff" opacity="0.9"/>
<circle cx="1312" cy="41" r="2.2" fill="#ffffff" opacity="0.39"/>
<circle cx="690" cy="32" r="1.0" fill="#ffffff" opacity="0.53"/>
<circle cx="1405" cy="125" r="1.0" fill="#ffffff" opacity="0.7"/>
<circle cx="447" cy="37" r="1.3" fill="#ffffff" opacity="0.82"/>
<circle cx="1441" cy="214" r="1.8" fill="#ffffff" opacity="0.7"/>
<circle cx="549" cy="166" r="2.2" fill="#ffffff" opacity="0.68"/>
<circle cx="1420" cy="245" r="2.3" fill="#ffffff" opacity="0.79"/>
<circle cx="379" cy="275" r="1.9" fill="#ffffff" opacity="0.35"/>
<circle cx="352" cy="168" r="2.5" fill="#ffffff" opacity="0.27"/>
<circle cx="1542" cy="408" r="1.6" fill="#ffffff" opacity="0.66"/>
<circle cx="485" cy="18" r="1.0" fill="#ffffff" opacity="0.72"/>
<circle cx="366" cy="219" r="1.5" fill="#ffffff" opacity="0.26"/>
<circle cx="628" cy="198" r="2.5" fill="#ffffff" opacity="0.58"/>
<circle cx="1554" cy="172" r="2.3" fill="#ffffff" opacity="0.59"/>
<circle cx="36" cy="396" r="2.1" fill="#ffffff" opacity="0.63"/>
<circle cx="699" cy="4" r="2.4" fill="#ffffff" opacity="0.29"/>
<circle cx="172" cy="334" r="1.5" fill="#ffffff" opacity="0.47"/>
<circle cx="437" cy="201" r="2.3" fill="#ffffff" opacity="0.47"/>
<circle cx="209" cy="237" r="1.6" fill="#ffffff" opacity="0.83"/>
<circle cx="100" cy="180" r="1.7" fill="#ffffff" opacity="0.78"/>
<circle cx="300" cy="340" r="1.9" fill="#ffffff" opacity="0.79"/>
<circle cx="1291" cy="216" r="2.2" fill="#ffffff" opacity="0.34"/>
<circle cx="1207" cy="91" r="1.9" fill="#ffffff" opacity="0.36"/>
<circle cx="1516" cy="173" r="2.0" fill="#ffffff" opacity="0.58"/>
<circle cx="1103" cy="84" r="2.2" fill="#ffffff" opacity="0.5"/>
<circle cx="1027" cy="401" r="2.1" fill="#ffffff" opacity="0.74"/>
<circle cx="783" cy="203" r="2.5" fill="#ffffff" opacity="0.56"/>
<circle cx="62" cy="134" r="1.8" fill="#ffffff" opacity="0.26"/>
<circle cx="157" cy="245" r="1.3" fill="#ffffff" opacity="0.86"/>
<circle cx="193" cy="132" r="1.1" fill="#ffffff" opacity="0.5"/>
<circle cx="15" cy="263" r="1.2" fill="#ffffff" opacity="0.32"/>
<circle cx="565" cy="49" r="1.4" fill="#ffffff" opacity="0.86"/>
<circle cx="509" cy="301" r="2.1" fill="#ffffff" opacity="0.69"/>
<circle cx="727" cy="190" r="2.0" fill="#ffffff" opacity="0.34"/>
<circle cx="72" cy="45" r="1.0" fill="#ffffff" opacity="0.55"/>
<circle cx="146" cy="194" r="1.9" fill="#ffffff" opacity="0.41"/>
<circle cx="1080" cy="219" r="1.5" fill="#ffffff" opacity="0.59"/>
<circle cx="54" cy="235" r="1.3" fill="#ffffff" opacity="0.87"/>
<circle cx="887" cy="227" r="1.3" fill="#ffffff" opacity="0.3"/>
<circle cx="253" cy="150" r="1.3" fill="#ffffff" opacity="0.83"/>
<circle cx="477" cy="182" r="1.6" fill="#ffffff" opacity="0.49"/>
<circle cx="286" cy="294" r="2.3" fill="#ffffff" opacity="0.62"/>
<circle cx="371" cy="331" r="1.1" fill="#ffffff" opacity="0.7"/>
<circle cx="698" cy="82" r="2.6" fill="#ffffff" opacity="0.3"/>
<circle cx="513" cy="284" r="1.1" fill="#ffffff" opacity="0.75"/>
<circle cx="2" cy="76" r="2.4" fill="#ffffff" opacity="0.28"/>
<circle cx="1390" cy="70" r="1.6" fill="#ffffff" opacity="0.44"/>
<circle cx="1043" cy="272" r="1.3" fill="#ffffff" opacity="0.42"/>
<circle cx="783" cy="392" r="1.8" fill="#ffffff" opacity="0.67"/>
<circle cx="1290" cy="291" r="2.4" fill="#ffffff" opacity="0.5"/>
<circle cx="1168" cy="43" r="1.3" fill="#ffffff" opacity="0.29"/>
<circle cx="1367" cy="75" r="1.8" fill="#ffffff" opacity="0.46"/>
<circle cx="448" cy="57" r="1.7" fill="#ffffff" opacity="0.57"/>
<circle cx="846" cy="291" r="2.4" fill="#ffffff" opacity="0.6"/>
<circle cx="877" cy="76" r="1.6" fill="#ffffff" opacity="0.45"/>
<circle cx="1127" cy="54" r="1.8" fill="#ffffff" opacity="0.4"/>
<circle cx="1428" cy="75" r="1.9" fill="#ffffff" opacity="0.46"/>
<circle cx="957" cy="10" r="2.2" fill="#ffffff" opacity="0.44"/>
<circle cx="634" cy="256" r="2.5" fill="#ffffff" opacity="0.62"/>
<circle cx="838" cy="38" r="1.3" fill="#ffffff" opacity="0.37"/>
<circle cx="1369" cy="8" r="2.3" fill="#ffffff" opacity="0.47"/>
<circle cx="1231" cy="201" r="2.5" fill="#ffffff" opacity="0.5"/>
<circle cx="263" cy="157" r="2.0" fill="#ffffff" opacity="0.35"/>
<circle cx="1025" cy="361" r="1.0" fill="#ffffff" opacity="0.89"/>
<circle cx="538" cy="249" r="2.5" fill="#ffffff" opacity="0.66"/>
<circle cx="1506" cy="317" r="2.4" fill="#ffffff" opacity="0.75"/>
<circle cx="815" cy="101" r="2.0" fill="#ffffff" opacity="0.79"/>
<circle cx="89" cy="346" r="1.7" fill="#ffffff" opacity="0.39"/>
<circle cx="159" cy="323" r="1.7" fill="#ffffff" opacity="0.27"/>
<circle cx="379" cy="20" r="1.4" fill="#ffffff" opacity="0.35"/>
<circle cx="667" cy="34" r="1.0" fill="#ffffff" opacity="0.69"/>
<circle cx="1507" cy="310" r="1.2" fill="#ffffff" opacity="0.88"/>
<circle cx="1339" cy="407" r="1.6" fill="#ffffff" opacity="0.59"/>
<circle cx="970" cy="428" r="2.5" fill="#ffffff" opacity="0.46"/>
<circle cx="37" cy="255" r="2.2" fill="#ffffff" opacity="0.3"/>
<circle cx="1424" cy="36" r="2.1" fill="#ffffff" opacity="0.76"/>
<circle cx="1556" cy="121" r="1.8" fill="#ffffff" opacity="0.32"/>
<circle cx="1125" cy="414" r="2.5" fill="#ffffff" opacity="0.26"/>
<circle cx="198" cy="427" r="2.5" fill="#ffffff" opacity="0.73"/>
<circle cx="1227" cy="183" r="2.0" fill="#ffffff" opacity="0.84"/>
<circle cx="716" cy="167" r="1.5" fill="#ffffff" opacity="0.54"/>
<circle cx="938" cy="97" r="1.2" fill="#ffffff" opacity="0.4"/>
<circle cx="196" cy="64" r="1.7" fill="#ffffff" opacity="0.75"/>
<circle cx="633" cy="291" r="1.8" fill="#ffffff" opacity="0.6"/>
<circle cx="1483" cy="65" r="2.0" fill="#ffffff" opacity="0.44"/>
<circle cx="503" cy="267" r="2.6" fill="#ffffff" opacity="0.27"/>
<circle cx="480" cy="391" r="1.3" fill="#ffffff" opacity="0.55"/>
<circle cx="376" cy="58" r="2.1" fill="#ffffff" opacity="0.82"/>
<circle cx="1033" cy="306" r="1.5" fill="#ffffff" opacity="0.81"/>
<circle cx="543" cy="97" r="2.0" fill="#ffffff" opacity="0.37"/>
<circle cx="1330" cy="172" r="2.4" fill="#ffffff" opacity="0.67"/>
<circle cx="1553" cy="73" r="1.4" fill="#ffffff" opacity="0.64"/>
<circle cx="386" cy="241" r="1.4" fill="#ffffff" opacity="0.69"/>
<circle cx="1269" cy="392" r="2.1" fill="#ffffff" opacity="0.38"/>
<circle cx="403" cy="393" r="2.0" fill="#ffffff" opacity="0.32"/>
<circle cx="1068" cy="125" r="2.2" fill="#ffffff" opacity="0.3"/>
<circle cx="1338" cy="127" r="2.6" fill="#ffffff" opacity="0.87"/>
<circle cx="416" cy="353" r="1.6" fill="#ffffff" opacity="0.87"/>
<circle cx="380" cy="200" r="55" fill="url(#moon)" opacity="1.0"/>
<circle cx="380" cy="200" r="36" fill="#fff6d8"/>
<circle cx="392" cy="192" r="36" fill="#0b0630"/>
<polygon points="0,820 300,690 600,780 900,660 1200,770 1450,690 1600,760 1600,900 0,900" fill="#05030f" opacity="1.0"/>

</svg>
