<svg xmlns="http://www.w3.org/2000/svg" width="1600" height="900" viewBox="0 0 1600 900" preserveAspectRatio="xMidYMid slice">
<defs>
<linearGradient id="sky" x1="0" y1="0" x2="0.62" y2="1"><stop offset="0%" stop-color="#171538"/><stop offset="45%" stop-color="#4b3a78"/><stop offset="100%" stop-color="#f2994a"/></linearGradient>
<radialGradient id="glow" cx="0.5" cy="0.5" r="0.5"><stop offset="0%" stop-color="rgba(255,209,102,0.9)"/><stop offset="100%" stop-color="rgba(255,209,102,0)"/></radialGradient>
</defs>
<rect width="1600" height="900" fill="url(#sky)"/>
<circle cx="724" cy="241" r="2.5" fill="#ffffff" opacity="0.55"/>
<circle cx="813" cy="253" r="1.3" fill="#ffffff" opacity="0.58"/>
<circle cx="1008" cy="341" r="1.2" fill="#ffffff" opacity="0.45"/>
<circle cx="145" cy="348" r="2.1" fill="#ffffff" opacity="0.28"/>
<circle cx="1572" cy="415" r="2.0" fill="#ffffff" opacity="0.65"/>
<circle cx="252" cy="6" r="1.8" fill="#ffffff" opacity="0.29"/>
<circle cx="304" cy="104" r="1.0" fill="#ffffff" opacity="0.55"/>
<circle cx="705" cy="362" r="1.8" fill="#ffffff" opacity="0.67"/>
<circle cx="800" cy="285" r="1.7" fill="#ffffff" opacity="0.43"/>
<circle cx="1596" cy="428" r="2.3" fill="#ffffff" opacity="0.71"/>
<circle cx="504" cy="99" r="1.5" fill="#ffffff" opacity="0.3"/>
<circle cx="1226" cy="172" r="2.4" fill="#ffffff" opacity="0.5"/>
<circle cx="1533" cy="364" r="1.0" fill="#ffffff" opacity="0.39"/>
<circle cx="1456" cy="202" r="2.6" fill="#ffffff" opacity="0.51"/>
<circle cx="117" cy="271" r="2.2" fill="#ffffff" opacity="0.43"/>
<circle cx="139" cy="143" r="2.5" fill="#ffffff" opacity="0.74"/>
<circle cx="189" cy="106" r="1.2" fill="#ffffff" opacity="0.29"/>
<circle cx="1275" cy="76" r="1.9" fill="#ffffff" opacity="0.54"/>
<circle cx="305" cy="315" r="1.2" fill="#ffffff" opacity="0.67"/>
<circle cx="186" cy="181" r="1.3" fill="#ffffff" opacity="0.43"/>
<circle cx="1553" cy="345" r="1.5" fill="#ffffff" opacity="0.83"/>
<circle cx="337" cy="170" r="2.4" fill="#ffffff" opacity="0.67"/>
<circle cx="161" cy="425" r="1.3" fill="#ffffff" opacity="0.42"/>
<circle cx="1236" cy="141" r="1.5" fill="#ffffff" opacity="0.3"/>
<circle cx="144" cy="251" r="1.4" fill="#ffffff" opacity="0.64"/>
<circle cx="595" cy="195" r="2.5" fill="#ffffff" opacity="0.56"/>
<circle cx="919" cy="373" r="1.3" fill="#ffffff" opacity="0.35"/>
<circle cx="1453" cy="352" r="1.4" fill="#ffffff" opacity="0.37"/>
<circle cx="1183" cy="404" r="1.3" fill="#ffffff" opacity="0.87"/>
<circle cx="1412" cy="260" r="1.7" fill="#ffffff" opacity="0.32"/>
<circle cx="62" cy="414" r="1.4" fill="#ffffff" opacity="0.71"/>
<circle cx="411" cy="354" r="2.0" fill="#ffffff" opacity="0.44"/>
<circle cx="281" cy="310" r="1.1" fill="#ffffff" opacity="0.4"/>
<circle cx="895" cy="367" r="2.0" fill="#ffffff" opacity="0.43"/>
<circle cx="1468" cy="88" r="1.0" fill="#ffffff" opacity="0.42"/>
<circle cx="713" cy="26" r="1.3" fill="#ffffff" opacity="0.49"/>
<circle cx="915" cy="57" r="1.6" fill="#ffffff" opacity="0.83"/>
<circle cx="1569" cy="282" r="2.1" fill="#ffffff" opacity="0.63"/>
<circle cx="225" cy="15" r="1.0" fill="#ffffff" opacity="0.84"/>
<circle cx="1122" cy="414" r="1.0" fill="#ffffff" opacity="0.66"/>
<circle cx="772" cy="314" r="1.5" fill="#ffffff" opacity="0.9"/>
<circle cx="120" cy="235" r="2.2" fill="#ffffff" opacity="0.84"/>
<circle cx="1179" cy="303" r="2.3" fill="#ffffff" opacity="0.84"/>
<circle cx="563" cy="295" r="2.4" fill="#ffffff" opacity="0.82"/>
<circle cx="667" cy="340" r="2.4" fill="#ffffff" opacity="0.62"/>
<circle cx="1000" cy="164" r="1.9" fill="#ffffff" opacity="0.65"/>
<circle cx="128" cy="275" r="2.6" fill="#ffffff" opacity="0.82"/>
<circle cx="1165" cy="167" r="2.2" fill="#ffffff" opacity="0.63"/>
<circle cx="705" cy="360" r="1.1" fill="#ffffff" opacity="0.74"/>
<circle cx="48" cy="259" r="1.8" fill="#ffffff" opacity="0.4"/>
<circle cx="1117" cy="214" r="2.0" fill="#ffffff" opacity="0.85"/>
<circle cx="409" cy="5" r="1.5" fill="#ffffff" opacity="0.69"/>
<circle cx="324" cy="73" r="2.4" fill="#ffffff" opacity="0.68"/>
<circle cx="707" cy="383" r="1.5" fill="#ffffff" opacity="0.68"/>
<circle cx="318" cy="185" r="2.3" fill="#ffffff" opacity="0.84"/>
<circle cx="1150" cy="540" r="90" fill="url(#glow)" opacity="1.0"/>
<circle cx="1150" cy="540" r="56" fill="#ffd166" opacity="1.0"/>
<polygon points="0,700 320,455 640,665 920,420 1230,635 1510,480 1600,540 1600,900 0,900" fill="#4b3b73" opacity="0.95"/>
<polygon points="0,760 260,585 560,745 860,555 1180,725 1420,600 1600,690 1600,900 0,900" fill="#362a54" opacity="1.0"/>
<polygon points="0,830 380,705 820,810 1240,690 1600,790 1600,900 0,900" fill="#1e1738" opacity="1.0"/>
<path d="M300 210 c 11.700000000000001 -14.3, 23.400000000000002 -14.3, 35.1 0 c 11.700000000000001 -14.3, 23.400000000000002 -14.3, 35.1 0" stroke="#ffffff" stroke-width="3.9000000000000004" fill="none" stroke-linecap="round"/>
<path d="M360 235 c 9.0 -11.0, 18.0 -11.0, 27.0 0 c 9.0 -11.0, 18.0 -11.0, 27.0 0" stroke="#ffffff" stroke-width="3.0" fill="none" stroke-linecap="round"/>
<path d="M1400 190 c 10.799999999999999 -13.2, 21.599999999999998 -13.2, 32.4 0 c 10.799999999999999 -13.2, 21.599999999999998 -13.2, 32.4 0" stroke="#ffffff" stroke-width="3.5999999999999996" fill="none" stroke-linecap="round"/>
<path d="M1450 215 c 8.1 -9.9, 16.2 -9.9, 24.3 0 c 8.1 -9.9, 16.2 -9.9, 24.3 0" stroke="#ffffff" stroke-width="2.7" fill="none" stroke-linecap="round"/>

</svg>
